<svg id="Grupo_103" data-name="Grupo 103" xmlns="http://www.w3.org/2000/svg" width="30.936" height="42.185" viewBox="0 0 30.936 42.185">
  <g id="Grupo_65" data-name="Grupo 65" transform="translate(0.703 30.936)">
    <path id="Caminho_53" data-name="Caminho 53" d="M25.765,55.14v1.406H16.632V55.14H11V51.625A5.623,5.623,0,0,1,16.625,46h4.219l4.922,2.812V55.14Z" transform="translate(-11 -46)" fill="none"/>
  </g>
  <g id="Grupo_66" data-name="Grupo 66" transform="translate(0 30.233)">
    <path id="Caminho_54" data-name="Caminho 54" d="M10.7,52.031a.7.7,0,0,1-.7-.7A6.335,6.335,0,0,1,16.328,45a.7.7,0,0,1,0,1.406,4.928,4.928,0,0,0-4.922,4.922A.7.7,0,0,1,10.7,52.031Z" transform="translate(-10 -45)" fill="#ff3e6c"/>
  </g>
  <g id="Grupo_67" data-name="Grupo 67" transform="translate(23.905 30.234)">
    <path id="Caminho_55" data-name="Caminho 55" d="M50.328,52.033a.7.7,0,0,1-.7-.7A4.928,4.928,0,0,0,44.7,46.408.7.7,0,0,1,44.7,45a6.335,6.335,0,0,1,6.328,6.328A.7.7,0,0,1,50.328,52.033Z" transform="translate(-44 -45.002)" fill="#ff3e6c"/>
  </g>
  <g id="Grupo_68" data-name="Grupo 68" transform="translate(5.625 30.233)">
    <path id="Caminho_56" data-name="Caminho 56" d="M22.922,46.408H18.7A.7.7,0,0,1,18.7,45h4.219a.7.7,0,0,1,0,1.406Z" transform="translate(-18 -45)" fill="#ff3e6c"/>
  </g>
  <g id="Grupo_69" data-name="Grupo 69" transform="translate(19.686 30.233)">
    <path id="Caminho_57" data-name="Caminho 57" d="M42.922,46.408H38.7A.7.7,0,0,1,38.7,45h4.219a.7.7,0,0,1,0,1.406Z" transform="translate(-38 -45)" fill="#ff3e6c"/>
  </g>
  <g id="Grupo_70" data-name="Grupo 70" transform="translate(0 35.857)">
    <path id="Caminho_58" data-name="Caminho 58" d="M10.7,59.328a.7.7,0,0,1-.7-.7V53.7a.7.7,0,1,1,1.406,0v4.922A.7.7,0,0,1,10.7,59.328Z" transform="translate(-10 -53)" fill="#ff3e6c"/>
  </g>
  <g id="Grupo_71" data-name="Grupo 71" transform="translate(29.53 35.859)">
    <path id="Caminho_59" data-name="Caminho 59" d="M52.7,59.328a.7.7,0,0,1-.7-.7v-4.92a.7.7,0,0,1,1.406,0v4.92A.7.7,0,0,1,52.7,59.328Z" transform="translate(-52 -53.002)" fill="#ff3e6c"/>
  </g>
  <g id="Grupo_72" data-name="Grupo 72" transform="translate(9.843 26.204)">
    <path id="Caminho_60" data-name="Caminho 60" d="M24.7,44.706A.7.7,0,0,1,24,44v-4.03a.7.7,0,0,1,1.406,0V44A.7.7,0,0,1,24.7,44.706Z" transform="translate(-24 -39.27)" fill="#ff3e6c"/>
  </g>
  <g id="Grupo_73" data-name="Grupo 73" transform="translate(19.686 26.204)">
    <path id="Caminho_61" data-name="Caminho 61" d="M38.7,44.7A.7.7,0,0,1,38,44V39.973a.7.7,0,1,1,1.406,0V44A.7.7,0,0,1,38.7,44.7Z" transform="translate(-38 -39.27)" fill="#ff3e6c"/>
  </g>
  <g id="Grupo_74" data-name="Grupo 74" transform="translate(4.219 16.874)">
    <path id="Caminho_62" data-name="Caminho 62" d="M27.249,37.952A11.263,11.263,0,0,1,16,26.7a.7.7,0,1,1,1.406,0,9.843,9.843,0,0,0,19.686,0,.7.7,0,1,1,1.406,0A11.263,11.263,0,0,1,27.249,37.952Z" transform="translate(-16 -26)" fill="#ff3e6c"/>
  </g>
  <g id="Grupo_75" data-name="Grupo 75" transform="translate(4.219 12.658)">
    <path id="Caminho_63" data-name="Caminho 63" d="M16.7,25.626a.7.7,0,0,1-.7-.7V20.707a.7.7,0,0,1,1.406,0v4.216A.7.7,0,0,1,16.7,25.626Z" transform="translate(-16 -20.004)" fill="#ff3e6c"/>
  </g>
  <g id="Grupo_76" data-name="Grupo 76" transform="translate(25.311 12.661)">
    <path id="Caminho_64" data-name="Caminho 64" d="M46.7,25.627a.7.7,0,0,1-.7-.7V20.711a.7.7,0,0,1,1.406,0v4.213A.7.7,0,0,1,46.7,25.627Z" transform="translate(-46 -20.008)" fill="#ff3e6c"/>
  </g>
  <g id="Grupo_77" data-name="Grupo 77" transform="translate(2.109 10.549)">
    <path id="Caminho_65" data-name="Caminho 65" d="M15.812,20.519A2.815,2.815,0,0,1,13,17.707a.7.7,0,1,1,1.406,0,1.408,1.408,0,0,0,1.406,1.406.7.7,0,1,1,0,1.406Z" transform="translate(-13 -17.004)" fill="#ff3e6c"/>
  </g>
  <g id="Grupo_78" data-name="Grupo 78" transform="translate(25.311 10.549)">
    <path id="Caminho_66" data-name="Caminho 66" d="M46.7,20.519a.7.7,0,0,1,0-1.406,1.408,1.408,0,0,0,1.406-1.406.7.7,0,1,1,1.406,0A2.815,2.815,0,0,1,46.7,20.519Z" transform="translate(-46 -17.004)" fill="#ff3e6c"/>
  </g>
  <g id="Grupo_79" data-name="Grupo 79" transform="translate(4.219 12.658)">
    <path id="Caminho_67" data-name="Caminho 67" d="M37.8,21.41H16.7A.7.7,0,1,1,16.7,20H37.8a.7.7,0,0,1,0,1.406Z" transform="translate(-16 -20.004)" fill="#ff3e6c"/>
  </g>
  <g id="Grupo_80" data-name="Grupo 80" transform="translate(12.656 0.003)">
    <path id="Caminho_68" data-name="Caminho 68" d="M32.919,3.41H28.7A.7.7,0,1,1,28.7,2h4.216a.7.7,0,1,1,0,1.406Z" transform="translate(-28 -2.004)" fill="#ff3e6c"/>
  </g>
  <g id="Grupo_81" data-name="Grupo 81" transform="translate(14.763 0.878)">
    <path id="Caminho_69" data-name="Caminho 69" d="M31.7,14.326a.7.7,0,0,1-.588-1.088l6.329-9.672a.7.7,0,0,1,1.177.771l-6.329,9.672A.7.7,0,0,1,31.7,14.326Z" transform="translate(-30.997 -3.248)" fill="#ff3e6c"/>
  </g>
  <g id="Grupo_82" data-name="Grupo 82" transform="translate(8.437 0.877)">
    <path id="Caminho_70" data-name="Caminho 70" d="M29.033,14.326a.7.7,0,0,1-.589-.318L22.114,4.336a.7.7,0,1,1,1.177-.771l6.329,9.672a.7.7,0,0,1-.588,1.088Z" transform="translate(-21.999 -3.248)" fill="#ff3e6c"/>
  </g>
  <g id="Grupo_83" data-name="Grupo 83" transform="translate(14.763 0.092)">
    <path id="Caminho_71" data-name="Caminho 71" d="M31.7,8.9a.7.7,0,0,1-.588-1.088l3.507-5.36a.7.7,0,1,1,1.177.771l-3.507,5.36A.7.7,0,0,1,31.7,8.9Z" transform="translate(-30.997 -2.131)" fill="#ff3e6c"/>
  </g>
  <g id="Grupo_84" data-name="Grupo 84" transform="translate(11.259 0.093)">
    <path id="Caminho_72" data-name="Caminho 72" d="M30.225,8.9a.7.7,0,0,1-.589-.318L26.128,3.221a.7.7,0,0,1,1.177-.771l3.507,5.358A.7.7,0,0,1,30.225,8.9Z" transform="translate(-26.013 -2.132)" fill="#ff3e6c"/>
  </g>
  <g id="Grupo_85" data-name="Grupo 85" transform="translate(2.109 0.003)">
    <path id="Caminho_73" data-name="Caminho 73" d="M13.7,13.956a.7.7,0,0,1-.7-.7A11.263,11.263,0,0,1,24.249,2a.7.7,0,0,1,0,1.406,9.854,9.854,0,0,0-9.843,9.843A.7.7,0,0,1,13.7,13.956Z" transform="translate(-13 -2.004)" fill="#ff3e6c"/>
  </g>
  <g id="Grupo_86" data-name="Grupo 86" transform="translate(16.871)">
    <path id="Caminho_74" data-name="Caminho 74" d="M45.248,13.955a.7.7,0,0,1-.7-.7A9.857,9.857,0,0,0,34.7,3.406.7.7,0,0,1,34.7,2,11.266,11.266,0,0,1,45.951,13.252.7.7,0,0,1,45.248,13.955Z" transform="translate(-33.996 -2)" fill="#ff3e6c"/>
  </g>
  <g id="Grupo_87" data-name="Grupo 87" transform="translate(18.28 2.421)">
    <path id="Caminho_75" data-name="Caminho 75" d="M36.7,14.978a.7.7,0,0,1-.588-1.088l5.319-8.128a.7.7,0,1,1,1.177.771L37.291,14.66A.7.7,0,0,1,36.7,14.978Z" transform="translate(-35.999 -5.443)" fill="#ff3e6c"/>
  </g>
  <g id="Grupo_88" data-name="Grupo 88" transform="translate(23.201 4.354)">
    <path id="Caminho_76" data-name="Caminho 76" d="M43.7,12.978a.7.7,0,0,1-.588-1.088l2.211-3.378a.7.7,0,0,1,1.177.771L44.291,12.66A.7.7,0,0,1,43.7,12.978Z" transform="translate(-42.999 -8.193)" fill="#ff3e6c"/>
  </g>
  <g id="Grupo_89" data-name="Grupo 89" transform="translate(18.27 10.546)">
    <path id="Caminho_77" data-name="Caminho 77" d="M45.839,18.406h-9.15a.7.7,0,1,1,0-1.406h9.15a.7.7,0,0,1,0,1.406Z" transform="translate(-35.986 -17)" fill="#ff3e6c"/>
  </g>
  <g id="Grupo_90" data-name="Grupo 90" transform="translate(23.202 7.733)">
    <path id="Caminho_78" data-name="Caminho 78" d="M47.542,14.4H43.7A.7.7,0,0,1,43.7,13h3.839a.7.7,0,0,1,0,1.406Z" transform="translate(-43 -12.998)" fill="#ff3e6c"/>
  </g>
  <g id="Grupo_95" data-name="Grupo 95" transform="translate(2.109 2.42)">
    <g id="Grupo_91" data-name="Grupo 91" transform="translate(3.821)">
      <path id="Caminho_79" data-name="Caminho 79" d="M24.457,14.977a.7.7,0,0,1-.589-.318L18.549,6.531a.7.7,0,0,1,1.177-.771l5.319,8.128a.7.7,0,0,1-.588,1.088Z" transform="translate(-18.434 -5.443)" fill="#ff3e6c"/>
    </g>
    <g id="Grupo_92" data-name="Grupo 92" transform="translate(2.007 1.933)">
      <path id="Caminho_80" data-name="Caminho 80" d="M18.77,12.977a.7.7,0,0,1-.589-.318L15.969,9.281a.7.7,0,1,1,1.177-.771l2.211,3.378a.7.7,0,0,1-.588,1.088Z" transform="translate(-15.854 -8.193)" fill="#ff3e6c"/>
    </g>
    <g id="Grupo_93" data-name="Grupo 93" transform="translate(0 8.126)">
      <path id="Caminho_81" data-name="Caminho 81" d="M22.853,18.406H13.7A.7.7,0,1,1,13.7,17h9.15a.7.7,0,1,1,0,1.406Z" transform="translate(-13 -17)" fill="#ff3e6c"/>
    </g>
    <g id="Grupo_94" data-name="Grupo 94" transform="translate(0.38 5.312)">
      <path id="Caminho_82" data-name="Caminho 82" d="M18.082,14.4H14.243a.7.7,0,1,1,0-1.406h3.839a.7.7,0,1,1,0,1.406Z" transform="translate(-13.54 -12.998)" fill="#ff3e6c"/>
    </g>
  </g>
  <g id="Grupo_96" data-name="Grupo 96" transform="translate(23.899 36.562)">
    <path id="Caminho_83" data-name="Caminho 83" d="M44.7,59.625a.7.7,0,0,1-.7-.7V54.705a.7.7,0,0,1,1.406,0v4.217A.7.7,0,0,1,44.7,59.625Z" transform="translate(-43.992 -54.002)" fill="#ff3e6c"/>
  </g>
  <g id="Grupo_97" data-name="Grupo 97" transform="translate(5.63 36.562)">
    <path id="Caminho_84" data-name="Caminho 84" d="M18.711,59.625a.7.7,0,0,1-.7-.7V54.705a.7.7,0,0,1,1.406,0v4.217A.7.7,0,0,1,18.711,59.625Z" transform="translate(-18.008 -54.002)" fill="#ff3e6c"/>
  </g>
  <g id="Grupo_98" data-name="Grupo 98" transform="translate(0.001 39.373)">
    <path id="Caminho_85" data-name="Caminho 85" d="M16.24,59.406H10.7A.7.7,0,1,1,10.7,58H16.24a.7.7,0,1,1,0,1.406Z" transform="translate(-10.001 -58)" fill="#ff3e6c"/>
  </g>
  <g id="Grupo_99" data-name="Grupo 99" transform="translate(23.899 39.373)">
    <path id="Caminho_86" data-name="Caminho 86" d="M50.325,59.406H44.7A.7.7,0,1,1,44.7,58h5.63a.7.7,0,1,1,0,1.406Z" transform="translate(-43.992 -58)" fill="#ff3e6c"/>
  </g>
  <g id="Grupo_100" data-name="Grupo 100" transform="translate(14.765 33.045)">
    <path id="Caminho_87" data-name="Caminho 87" d="M31.7,58.14a.7.7,0,0,1-.7-.7V49.7a.7.7,0,1,1,1.406,0v7.734A.7.7,0,0,1,31.7,58.14Z" transform="translate(-31 -49)" fill="#ff3e6c"/>
  </g>
  <g id="Grupo_101" data-name="Grupo 101" transform="translate(14.765 30.232)">
    <path id="Caminho_88" data-name="Caminho 88" d="M31.7,49.218a.7.7,0,0,1-.349-1.313l4.922-2.812a.7.7,0,1,1,.7,1.221l-4.922,2.812A.7.7,0,0,1,31.7,49.218Z" transform="translate(-31 -44.999)" fill="#ff3e6c"/>
  </g>
  <g id="Grupo_102" data-name="Grupo 102" transform="translate(9.843 30.233)">
    <path id="Caminho_89" data-name="Caminho 89" d="M29.624,49.219a.7.7,0,0,1-.348-.093l-4.922-2.811a.7.7,0,1,1,.7-1.221l4.922,2.811a.7.7,0,0,1-.349,1.313Z" transform="translate(-24 -45.001)" fill="#ff3e6c"/>
  </g>
</svg>
