<svg id="Grupo_108" data-name="Grupo 108" xmlns="http://www.w3.org/2000/svg" width="59.444" height="37.159" viewBox="0 0 59.444 37.159">
  <path id="Caminho_120" data-name="Caminho 120" d="M12.074,52.652A12.074,12.074,0,1,1,24.149,40.577,12.088,12.088,0,0,1,12.074,52.652Zm0-22.291A10.217,10.217,0,1,0,22.291,40.577,10.229,10.229,0,0,0,12.074,30.361Z" transform="translate(0 -15.493)" fill="#ff3e6c"/>
  <path id="Caminho_121" data-name="Caminho 121" d="M50.074,52.652A12.074,12.074,0,1,1,62.149,40.577,12.088,12.088,0,0,1,50.074,52.652Zm0-22.291A10.217,10.217,0,1,0,60.291,40.577,10.229,10.229,0,0,0,50.074,30.361Z" transform="translate(-2.705 -15.493)" fill="#ff3e6c"/>
  <path id="Caminho_122" data-name="Caminho 122" d="M50.715,44.933a3.715,3.715,0,1,1,3.715-3.715A3.719,3.719,0,0,1,50.715,44.933Zm0-5.573a1.858,1.858,0,1,0,1.858,1.858A1.859,1.859,0,0,0,50.715,39.361Z" transform="translate(-3.346 -16.134)" fill="#ff3e6c"/>
  <path id="Caminho_123" data-name="Caminho 123" d="M12.715,44.933a3.715,3.715,0,1,1,3.715-3.715A3.719,3.719,0,0,1,12.715,44.933Zm0-5.573a1.858,1.858,0,1,0,1.858,1.858A1.859,1.859,0,0,0,12.715,39.361Z" transform="translate(-0.641 -16.134)" fill="#ff3e6c"/>
  <path id="Caminho_124" data-name="Caminho 124" d="M29.715,44.933a3.715,3.715,0,1,1,3.715-3.715A3.719,3.719,0,0,1,29.715,44.933Zm0-5.573a1.858,1.858,0,1,0,1.858,1.858A1.859,1.859,0,0,0,29.715,39.361Z" transform="translate(-1.851 -16.134)" fill="#ff3e6c"/>
  <path id="Caminho_125" data-name="Caminho 125" d="M50.359,40.509a.93.93,0,0,1-.884-.644L42.044,15.711a.929.929,0,0,1,1.769-.57L51.244,39.3a.93.93,0,0,1-.6,1.169A.951.951,0,0,1,50.359,40.509Z" transform="translate(-2.99 -14.496)" fill="#ff3e6c"/>
  <path id="Caminho_126" data-name="Caminho 126" d="M50.358,16.355h-7.43a.929.929,0,0,1,0-1.858h7.43a.929.929,0,0,1,0,1.858Z" transform="translate(-2.99 -14.496)" fill="#ff3e6c"/>
  <path id="Caminho_127" data-name="Caminho 127" d="M47.928,19.141a.929.929,0,1,1,0-1.858,1.859,1.859,0,0,0,1.858-1.858.929.929,0,0,1,1.858,0A3.719,3.719,0,0,1,47.928,19.141Z" transform="translate(-3.346 -14.496)" fill="#ff3e6c"/>
  <path id="Caminho_128" data-name="Caminho 128" d="M26.148,42.361H15.929a.929.929,0,1,1,0-1.858H26.148a.929.929,0,1,1,0,1.858Z" transform="translate(-1.068 -16.347)" fill="#ff3e6c"/>
  <path id="Caminho_129" data-name="Caminho 129" d="M12.928,41.221a.929.929,0,0,1-.774-1.442L22,24.918a.929.929,0,0,1,1.549,1.026L13.7,40.805A.927.927,0,0,1,12.928,41.221Z" transform="translate(-0.854 -15.208)" fill="#ff3e6c"/>
  <path id="Caminho_130" data-name="Caminho 130" d="M44.185,26.361H23.529a.929.929,0,1,1,0-1.858H44.185a.929.929,0,1,1,0,1.858Z" transform="translate(-1.609 -15.208)" fill="#ff3e6c"/>
  <path id="Caminho_131" data-name="Caminho 131" d="M32.039,39.242a.929.929,0,0,1-.66-1.582L44.13,24.778a.929.929,0,0,1,1.321,1.308L32.7,38.966A.924.924,0,0,1,32.039,39.242Z" transform="translate(-2.215 -15.208)" fill="#ff3e6c"/>
  <path id="Caminho_132" data-name="Caminho 132" d="M28.327,38.355a.929.929,0,0,1-.863-.584l-6.4-15.993a.929.929,0,0,1,1.726-.69l6.4,15.994a.928.928,0,0,1-.863,1.273Z" transform="translate(-1.495 -14.924)" fill="#ff3e6c"/>
  <path id="Caminho_133" data-name="Caminho 133" d="M27.216,22.361H17.928a.929.929,0,0,1,0-1.858h9.288a.929.929,0,0,1,0,1.858Z" transform="translate(-1.21 -14.924)" fill="#ff3e6c"/>
  <path id="Caminho_134" data-name="Caminho 134" d="M27.714,22.147a.929.929,0,0,1-.929-.929,1.859,1.859,0,0,0-1.858-1.858.929.929,0,0,1,0-1.858,3.719,3.719,0,0,1,3.715,3.715A.929.929,0,0,1,27.714,22.147Z" transform="translate(-1.709 -14.71)" fill="#ff3e6c"/>
  <path id="Caminho_135" data-name="Caminho 135" d="M17.928,22.147A.929.929,0,0,1,17,21.218V18.432a.929.929,0,1,1,1.858,0v2.786A.929.929,0,0,1,17.928,22.147Z" transform="translate(-1.21 -14.71)" fill="#ff3e6c"/>
  <path id="Caminho_136" data-name="Caminho 136" d="M24.429,19.361h-6.5a.929.929,0,0,1,0-1.858h6.5a.929.929,0,0,1,0,1.858Z" transform="translate(-1.21 -14.71)" fill="#ff3e6c"/>
  <g id="Grupo_107" data-name="Grupo 107" transform="translate(26.935 24.157)">
    <g id="Grupo_105" data-name="Grupo 105">
      <path id="Caminho_137" data-name="Caminho 137" d="M34.566,47a.926.926,0,0,1-.657-.272L29.272,42.09a.929.929,0,0,1,1.313-1.313l4.638,4.637A.929.929,0,0,1,34.566,47Z" transform="translate(-29 -40.505)" fill="#ff3e6c"/>
    </g>
    <g id="Grupo_106" data-name="Grupo 106" transform="translate(1.858 4.637)">
      <path id="Caminho_138" data-name="Caminho 138" d="M36.573,47.355H31.929a.929.929,0,1,1,0-1.858h4.644a.929.929,0,1,1,0,1.858Z" transform="translate(-31 -45.497)" fill="#ff3e6c"/>
    </g>
  </g>
</svg>
