<svg xmlns="http://www.w3.org/2000/svg" width="37.443" height="37.442" viewBox="0 0 37.443 37.442">
  <g id="Grupo_114" data-name="Grupo 114" transform="translate(-35 -1107)">
    <g id="Grupo_104" data-name="Grupo 104" transform="translate(35 1107)">
      <path id="Caminho_90" data-name="Caminho 90" d="M52.211,15.8a.585.585,0,0,1-.585-.585A14.057,14.057,0,0,0,37.585,1.17a.585.585,0,1,1,0-1.17A15.228,15.228,0,0,1,52.8,15.211.585.585,0,0,1,52.211,15.8Z" transform="translate(-15.353 0)" fill="#ff3e6c"/>
      <path id="Caminho_91" data-name="Caminho 91" d="M48.7,18.286a.585.585,0,0,1-.585-.585A10.543,10.543,0,0,0,37.585,7.17a.585.585,0,1,1,0-1.17,11.714,11.714,0,0,1,11.7,11.7A.585.585,0,0,1,48.7,18.286Z" transform="translate(-15.353 -2.49)" fill="#ff3e6c"/>
      <path id="Caminho_92" data-name="Caminho 92" d="M51.19,20.775a.585.585,0,0,1-.585-.585,7.028,7.028,0,0,0-7.02-7.02.585.585,0,1,1,0-1.17,8.2,8.2,0,0,1,8.19,8.19A.585.585,0,0,1,51.19,20.775Z" transform="translate(-17.843 -4.979)" fill="#ff3e6c"/>
      <path id="Caminho_93" data-name="Caminho 93" d="M47.092,23.684a.585.585,0,0,1-.585-.585,2.923,2.923,0,0,0-2.92-2.92.585.585,0,0,1,0-1.17,4.1,4.1,0,0,1,4.091,4.09A.585.585,0,0,1,47.092,23.684Z" transform="translate(-17.844 -7.888)" fill="#ff3e6c"/>
      <path id="Caminho_94" data-name="Caminho 94" d="M58.585,28.51a.585.585,0,0,1,0-1.17,1.757,1.757,0,0,0,1.755-1.755.585.585,0,0,1,1.17,0A2.928,2.928,0,0,1,58.585,28.51Z" transform="translate(-24.068 -10.374)" fill="#ff3e6c"/>
      <path id="Caminho_95" data-name="Caminho 95" d="M38.667,30.17H10.585a.585.585,0,1,1,0-1.17H38.667a.585.585,0,1,1,0,1.17Z" transform="translate(-4.149 -12.034)" fill="#ff3e6c"/>
      <path id="Caminho_96" data-name="Caminho 96" d="M6.435,26.021A6.442,6.442,0,0,1,0,19.586a.585.585,0,1,1,1.17,0,5.271,5.271,0,0,0,5.265,5.265.585.585,0,0,1,0,1.17Z" transform="translate(0 -7.885)" fill="#ff3e6c"/>
      <path id="Caminho_97" data-name="Caminho 97" d="M8.1,23.681A4.1,4.1,0,0,1,4,19.586a.585.585,0,1,1,1.17,0A2.928,2.928,0,0,0,8.1,22.511a.585.585,0,0,1,0,1.17Z" transform="translate(-1.659 -7.885)" fill="#ff3e6c"/>
      <path id="Caminho_98" data-name="Caminho 98" d="M21.1,23.681a.585.585,0,0,1-.585-.585,2.928,2.928,0,0,0-2.925-2.925.585.585,0,1,1,0-1.17,4.1,4.1,0,0,1,4.1,4.095A.585.585,0,0,1,21.1,23.681Z" transform="translate(-7.055 -7.885)" fill="#ff3e6c"/>
      <path id="Caminho_99" data-name="Caminho 99" d="M23.891,1.17H4.585a.585.585,0,0,1,0-1.17H23.891a.585.585,0,0,1,0,1.17Z" transform="translate(-1.659 0)" fill="#ff3e6c"/>
      <path id="Caminho_100" data-name="Caminho 100" d="M11.02,7.605a.583.583,0,0,1-.414-.171L4.171,1A.585.585,0,0,1,5,.171l6.435,6.435a.585.585,0,0,1-.414,1Z" transform="translate(-1.659 0)" fill="#ff3e6c"/>
      <path id="Caminho_101" data-name="Caminho 101" d="M.584,13.946a.585.585,0,0,1-.516-.861l4.68-8.776a.585.585,0,0,1,1.033.551L1.1,13.636A.587.587,0,0,1,.584,13.946Z" transform="translate(0.001 -1.659)" fill="#ff3e6c"/>
      <path id="Caminho_102" data-name="Caminho 102" d="M11.132,12.17H4.853a.585.585,0,1,1,0-1.17h6.279a.585.585,0,1,1,0,1.17Z" transform="translate(-1.771 -4.564)" fill="#ff3e6c"/>
      <path id="Caminho_103" data-name="Caminho 103" d="M31.359,7.171H22.581a.585.585,0,0,1,0-1.17h8.778a.585.585,0,1,1,0,1.17Z" transform="translate(-9.127 -2.49)" fill="#ff3e6c"/>
      <path id="Caminho_104" data-name="Caminho 104" d="M37.36,13.172H28.582a.585.585,0,1,1,0-1.17H37.36a.585.585,0,0,1,0,1.17Z" transform="translate(-11.617 -4.98)" fill="#ff3e6c"/>
      <path id="Caminho_105" data-name="Caminho 105" d="M26.092,10.682a4.1,4.1,0,0,1-4.1-4.1.585.585,0,1,1,1.17,0,2.929,2.929,0,0,0,2.926,2.926.585.585,0,1,1,0,1.17Z" transform="translate(-9.127 -2.49)" fill="#ff3e6c"/>
      <path id="Caminho_106" data-name="Caminho 106" d="M33.1,23.656a4.1,4.1,0,0,1-4.1-4.1.585.585,0,0,1,1.17,0A2.931,2.931,0,0,0,33.1,22.486a.585.585,0,1,1,0,1.17Z" transform="translate(-12.034 -7.873)" fill="#ff3e6c"/>
      <path id="Caminho_107" data-name="Caminho 107" d="M43.773,26.17H35.589a.585.585,0,0,1,0-1.17h8.184a.585.585,0,1,1,0,1.17Z" transform="translate(-14.525 -10.374)" fill="#ff3e6c"/>
      <path id="Caminho_108" data-name="Caminho 108" d="M37.776,20.146H29.585a.585.585,0,1,1,0-1.17h8.191a.585.585,0,1,1,0,1.17Z" transform="translate(-12.034 -7.874)" fill="#ff3e6c"/>
      <path id="Caminho_109" data-name="Caminho 109" d="M12.192,20.171H4.585a.585.585,0,0,1,0-1.17h7.607a.585.585,0,1,1,0,1.17Z" transform="translate(-1.659 -7.885)" fill="#ff3e6c"/>
      <path id="Caminho_110" data-name="Caminho 110" d="M18.192,26.17H10.585a.585.585,0,1,1,0-1.17h7.607a.585.585,0,0,1,0,1.17Z" transform="translate(-4.149 -10.374)" fill="#ff3e6c"/>
      <path id="Caminho_111" data-name="Caminho 111" d="M47.919,56.947H45.581A.584.584,0,0,1,45,56.362V47.588a.585.585,0,0,1,1.17,0v8.189h1.168V47.588a.585.585,0,0,1,1.17,0v8.774A.584.584,0,0,1,47.919,56.947Z" transform="translate(-18.671 -19.505)" fill="#ff3e6c"/>
      <path id="Caminho_112" data-name="Caminho 112" d="M47.919,37.192a.584.584,0,0,1-.585-.585V30.17H46.166v6.437a.585.585,0,1,1-1.17,0V29.585A.585.585,0,0,1,45.581,29h2.338a.585.585,0,0,1,.585.585v7.022A.584.584,0,0,1,47.919,37.192Z" transform="translate(-18.671 -12.034)" fill="#ff3e6c"/>
      <path id="Caminho_113" data-name="Caminho 113" d="M18.775,41.363A8.786,8.786,0,0,1,10,32.587a.585.585,0,0,1,1.17,0,7.614,7.614,0,0,0,7.605,7.606.585.585,0,1,1,0,1.17Z" transform="translate(-4.149 -13.28)" fill="#ff3e6c"/>
      <path id="Caminho_114" data-name="Caminho 114" d="M20.435,39.023A6.443,6.443,0,0,1,14,32.587a.585.585,0,0,1,1.17,0,5.271,5.271,0,0,0,5.265,5.266.585.585,0,1,1,0,1.17Z" transform="translate(-5.809 -13.28)" fill="#ff3e6c"/>
      <path id="Caminho_115" data-name="Caminho 115" d="M48.1,45.683h-3.51A.584.584,0,0,1,44,45.1v-3.51A.584.584,0,0,1,44.585,41H48.1a.584.584,0,0,1,.585.585V45.1A.584.584,0,0,1,48.1,45.683Zm-2.925-1.17h2.34v-2.34H45.17Z" transform="translate(-18.258 -17.015)" fill="#ff3e6c"/>
      <path id="Caminho_116" data-name="Caminho 116" d="M36.286,43.173h-11.7a.585.585,0,0,1,0-1.17h11.7a.585.585,0,1,1,0,1.17Z" transform="translate(-9.959 -17.43)" fill="#ff3e6c"/>
      <path id="Caminho_117" data-name="Caminho 117" d="M36.286,47.173h-11.7a.585.585,0,0,1,0-1.17h11.7a.585.585,0,0,1,0,1.17Z" transform="translate(-9.959 -19.09)" fill="#ff3e6c"/>
      <path id="Caminho_118" data-name="Caminho 118" d="M14.585,31.926A.584.584,0,0,1,14,31.341V29.585a.585.585,0,1,1,1.17,0v1.756A.584.584,0,0,1,14.585,31.926Z" transform="translate(-5.809 -12.034)" fill="#ff3e6c"/>
      <path id="Caminho_119" data-name="Caminho 119" d="M10.585,31.926A.584.584,0,0,1,10,31.341V29.585a.585.585,0,1,1,1.17,0v1.756A.584.584,0,0,1,10.585,31.926Z" transform="translate(-4.149 -12.034)" fill="#ff3e6c"/>
    </g>
  </g>
</svg>
